<?xml version="1.0" encoding="UTF-8" standalone="no"?>
<!-- Created with Inkscape (http://www.inkscape.org/) -->

<svg
   version="1.1"
   id="svg1"
   width="197.97243"
   height="184.06418"
   viewBox="0 0 197.97243 184.06418"
   xmlns="http://www.w3.org/2000/svg"
  >
  <g
     id="layer1"
     transform="translate(-35.087474,-37.715222)">
    <path
       style="fill:#ffffff;fill-opacity:1;stroke:#ffb77c;stroke-linecap:round;stroke-linejoin:round"
       d="M 99.818538,126.49731 C 98.787342,125.1405 89.625631,108.62847 97.640679,106.71509"
       id="path6" />
    <path
       style="fill:#ffffff;fill-opacity:1;stroke:#ffb77c;stroke-linecap:round;stroke-linejoin:round"
       d="m 146.64251,122.86754 c -0.3475,-1.11321 8.64686,-14.89497 1.27041,-18.5118"
       id="path7" />
    <ellipse
       style="fill:#ffffff;fill-opacity:1;stroke:#ffb77c;stroke-width:1.10813;stroke-linecap:round;stroke-linejoin:round"
       id="path1"
       cx="122.7608"
       cy="110.72"
       rx="25.273134"
       ry="37.590736" />
    <path
       style="fill:#ffffff;fill-opacity:1;stroke:#ffb77c;stroke-width:0.265;stroke-linecap:round;stroke-linejoin:round;stroke-dasharray:none"
       d="m 97.433601,114.21396 c 22.255089,-6.97585 36.993869,-3.92996 50.654399,0.5536"
       id="path2" />
    <path
       style="fill:#ffffff;fill-opacity:1;stroke:#ffb77c;stroke-width:0.265;stroke-linecap:round;stroke-linejoin:round;stroke-dasharray:none"
       d="m 122.8202,73.343927 c 0.97599,26.299049 0.33366,50.888103 -1.07371,75.280463 l 0.016,73.65991"
       id="path3" />
    <path
       style="fill:#ffb77c;fill-opacity:1;stroke:#ffb77c;stroke-linecap:butt;stroke-linejoin:round"
       d="m 103.99277,112.15974 c 1.58434,-11.28098 9.24591,-12.34381 13.7931,-2.17786"
       id="path4" />
    <path
       style="fill:#ffb77c;fill-opacity:1;stroke:#ffb77c;stroke-width:1.03404;stroke-linecap:butt;stroke-linejoin:round"
       d="m 129.78021,110.5906 c 5.43893,-13.315784 12.37381,-6.90753 12.04533,2.0584"
       id="path5" />
    <path
       style="fill:#ffffff;fill-opacity:1;stroke:#ffb77c;stroke-linecap:round;stroke-linejoin:round"
       d="m 110.16337,143.37572 c -0.67437,8.37425 -4.0816,18.56908 -8.44664,25.098"
       id="path8" />
    <path
       style="fill:#ffffff;fill-opacity:1;stroke:#ffb77c;stroke-linecap:round;stroke-linejoin:round"
       d="m 134.11982,144.10167 c 1.85867,7.26789 4.44191,15.35316 7.25953,22.14157"
       id="path9" />
    <path
       style="fill:#ffffff;fill-opacity:1;stroke:#ffb77c;stroke-linecap:round;stroke-linejoin:round"
       d="m 55.54233,180.06165 c 17.243346,-8.92977 105.30205,-19.14878 121.95318,-8.55525"
       id="path10" />
    <path
       style="fill:#ffffff;fill-opacity:1;stroke:#ffb77c;stroke-linecap:round;stroke-linejoin:round"
       d="m 177.31402,172.23235 c 4.18076,-19.98914 20.34964,-37.31426 32.4864,-55.53541"
       id="path12" />
    <path
       style="fill:#ffffff;fill-opacity:1;stroke:#ffb77c;stroke-linecap:round;stroke-linejoin:round"
       d="m 162.61347,61.524517 c 15.79985,18.487394 29.11274,38.620533 47.54992,55.353913"
       id="path13" />
    <path
       style="fill:#ffffff;fill-opacity:1;stroke:#ffb77c;stroke-linecap:round;stroke-linejoin:round"
       d="M 193.5828,195.35293 C 211.53706,181.07237 216.31604,146.44 231.03454,122.50457"
       id="path14" />
    <path
       style="fill:#ffffff;fill-opacity:1;stroke:#ffb77c;stroke-linecap:round;stroke-linejoin:round"
       d="M 227.40478,105.80765 C 217.53446,86.540419 193.4845,71.370999 173.32128,54.264987"
       id="path15" />
    <path
       style="fill:#ffffff;fill-opacity:1;stroke:#ffb77c;stroke-width:1.13963;stroke-linecap:round;stroke-linejoin:round"
       d="m 169.30085,49.407128 c -4.21884,-3.940725 -12.47985,-6.726285 -17.99956,-8.065273 -1.05077,6.964301 -2.03227,14.208794 -5.37193,20.155814 5.21082,1.109591 12.24157,1.367971 16.93793,0.676967"
       id="path17" />
    <path
       style="fill:#ffffff;fill-opacity:1;stroke:#ffb77c;stroke-width:1;stroke-linecap:round;stroke-linejoin:round;stroke-dasharray:none"
       d="m 150.82315,41.346766 -9.5924,-0.595384 c -2.3091,4.578465 -3.01231,9.657327 -2.71899,15.276757 l 7.62658,4.684807"
       id="path18" />
    <path
       style="fill:#ffffff;fill-opacity:1;stroke:#ffb77c;stroke-width:1.13963;stroke-linecap:round;stroke-linejoin:round"
       d="M 121.01684,38.858217 C 118.3737,44.45463 118.976,53.751186 119.77717,57.966621"
       id="path19" />
    <path
       style="fill:#ffffff;fill-opacity:1;stroke:#ffb77c;stroke-width:1.13963;stroke-linecap:round;stroke-linejoin:round"
       d="m 138.57744,56.304753 c -6.06872,1.226181 -12.5185,2.526626 -19.09501,1.213807"
       id="path20" />
    <path
       style="fill:#ffffff;fill-opacity:1;stroke:#ffb77c;stroke-width:1;stroke-linecap:round;stroke-linejoin:round;stroke-dasharray:none"
       d="m 146.91512,61.897867 c -3.93362,2.978401 -8.27543,6.332069 -14.79862,8.533597 -5.0195,-6.555125 2.91169,-7.753491 6.9138,-13.915356"
       id="path21" />
    <path
       style="fill:#ffffff;fill-opacity:1;stroke:#ffb77c;stroke-width:1.13963;stroke-linecap:round;stroke-linejoin:round"
       d="m 140.79313,40.749199 c -6.14474,-1.20879 -11.5255,-3.78846 -20.08787,-1.612571"
       id="path22" />
    <path
       style="fill:#ffffff;fill-opacity:1;stroke:#ffb77c;stroke-linecap:round;stroke-linejoin:round"
       d="m 53.489641,181.69073 c -5.049295,6.8804 -11.682095,19.89345 -12.604738,39.99164"
       id="path23" />
    <path
       style="fill:#ffffff;fill-opacity:1;stroke:#ffb77c;stroke-linecap:round;stroke-linejoin:round"
       d="m 72.505778,201.85984 c -1.704341,4.9608 -3.277556,13.94645 -3.762026,19.77965"
       id="path24" />
    <path
       style="fill:#ffffff;fill-opacity:1;stroke:#ffb77c;stroke-linecap:round;stroke-linejoin:round"
       d="m 189.05807,199.43112 c -8.8597,10.5893 -6.62311,14.09229 -7.30857,21.97194"
       id="path24-1" />
    <path
       style="fill:#ffffff;fill-opacity:1;stroke:#ffb77c;stroke-width:0.410966;stroke-linecap:round;stroke-linejoin:round"
       d="m 61.546947,177.61038 50.257533,-3.90647 5.39714,5.82404"
       id="path5-3" />
    <path
       style="fill:#ffffff;fill-opacity:1;stroke:#ffb77c;stroke-width:0.401486;stroke-linecap:round;stroke-linejoin:round;stroke-dasharray:none"
       d="m 174.69041,172.19505 -45.49512,1.57971 -2.1959,4.44365"
       id="path6-6" />
    <ellipse
       style="fill:#ffffff;fill-opacity:1;stroke:#ffb77c;stroke-width:1.26836;stroke-linecap:round;stroke-linejoin:round"
       id="path11"
       cx="182.51022"
       cy="186.82585"
       rx="14.041736"
       ry="14.387023" />
    <ellipse
       style="fill:#ffffff;fill-opacity:1;stroke:#ffb77c;stroke-width:1.19976;stroke-linecap:round;stroke-linejoin:round"
       id="path11-6"
       cx="63.318352"
       cy="191.66124"
       rx="13.282333"
       ry="13.608948" />
    <ellipse
       style="fill:#ffffff;fill-opacity:1;stroke:#ffb77c;stroke-width:0.616888;stroke-linecap:round;stroke-linejoin:round"
       id="path11-1"
       cx="166.94464"
       cy="56.149704"
       rx="6.8294291"
       ry="6.9973655" />
    <ellipse
       style="fill:#ffffff;fill-opacity:1;stroke:#ffb77c;stroke-linecap:round;stroke-linejoin:round"
       id="path11-3"
       cx="221.48912"
       cy="116.01361"
       rx="11.070784"
       ry="11.343016" />
    <g
       id="g14"
       transform="matrix(1.5869023,0,0,1.5869023,-14.403606,83.797694)"
       style="fill:#ffffff;fill-opacity:1;stroke-linecap:round;stroke-linejoin:round">
      <path
         style="fill:#ffffff;fill-opacity:1;stroke:#ffb77c;stroke-width:0.264583;stroke-linecap:round;stroke-linejoin:round"
         d="m 85.042329,24.167091 v 1.220777"
         id="path13-1" />
      <path
         style="fill:#ffffff;fill-opacity:1;stroke:#ffb77c;stroke-width:0.264583;stroke-linecap:round;stroke-linejoin:round"
         d="m 88.409993,24.124993 v 1.262875"
         id="path14-0" />
    </g>
    <path
       style="fill:#ffffff;fill-opacity:1;stroke:#ffb77c;stroke-width:0.419867;stroke-linecap:round;stroke-linejoin:round"
       d="m 113.76098,132.93957 c 5.59276,1.94747 13.71508,1.75979 19.12977,-0.0323"
       id="path15-6" />
    <path
       style="fill:#ffffff;fill-opacity:1;stroke:#ffb77c;stroke-width:0.419867;stroke-linecap:round;stroke-linejoin:round"
       d="m 113.71193,151.56624 3.02457,16.80318"
       id="path16" />
    <path
       style="fill:#ffffff;fill-opacity:1;stroke:#ffb77c;stroke-width:0.419867;stroke-linecap:round;stroke-linejoin:round"
       d="m 130.63077,152.3327 -2.94248,15.82866"
       id="path17-3" />
  </g>
</svg>
