<?xml version="1.0" encoding="UTF-8" standalone="no"?>
<svg
   width="142.14293mm"
   height="379.03851mm"
   viewBox="0 0 142.14293 379.03851"
   version="1.1"
   id="body-shape"
   xmlns="http://www.w3.org/2000/svg">
   <g id="body" transform="translate(-15.95332,7.00862)">
       <g id="leg-R">
           <path
               d="m 97.013437,345.65416 8.038813,25.1254 13.15317,-11.39648 -9.96549,-13.46256 c -4.61016,4.8425 -8.08339,3.20434 -11.226493,-0.26636 z"
               id="foot-R" />
           <ellipse
               id="ankle-R"  cx="102.72306" cy="342.18515" rx="6.5405936" ry="6.6935892"
               />
           <path
               d="m 112.27754,267.61625 c 8.62175,24.11358 -0.79578,48.04682 -3.82833,72.1604 -2.01979,-4.94571 -9.384953,-4.86523 -11.478753,-0.52177 -1.76976,-23.30559 -7.232054,-46.02633 -2.254484,-71.31643 4.99188,6.64687 11.885507,6.48665 17.561567,-0.3222 z"
               id="tibia-R" />
           <ellipse
               id="knee-R" cx="103.43635" cy="261.8978" rx="9.9077826" ry="10.139543"
               />
           <path
               d="m 117.0442,168.08988 c 3.48204,17.04956 11.74029,22.66454 -5.17515,87.85213 -4.92431,-3.6439 -9.98125,-6.49198 -16.594872,0 -1.228099,-18.26033 -9.210174,-39.86858 -2.57785,-53.65137 z"
               id="thigh-R" />
       </g>
    <g
       id="leg-L">
      <path
         d="m 77.161751,345.50082 -7.718445,25.04531 -13.153139,-11.39648 9.484966,-13.2223 c 4.610138,4.8425 8.243517,3.04417 11.386618,-0.42653 z"
         id="foot-L" />
      <ellipse
         id="ankle-L"
         cx="71.401016"
         cy="342.18515"
         rx="6.5405936"
         ry="6.6935892"
         />
      <path
         d="m 61.548931,267.08708 c -8.621746,24.11358 0.795774,48.04682 3.828333,72.1604 2.019783,-4.94571 9.785371,-4.86523 11.879175,-0.52177 1.769756,-23.30559 6.83162,-46.02633 1.854054,-71.31643 -4.991879,6.64687 -11.885499,6.48665 -17.561562,-0.3222 z"
         id="tibia-L" />
      <ellipse
         id="knee-L"
         cx="70.613228"
         cy="261.8978"
         rx="9.9077826"
         ry="10.139543"
         />
      <path
         d="m 56.700171,167.87702 c -3.482038,17.04956 -11.583327,22.70572 5.332106,87.89331 7.645613,-5.88598 12.342635,-3.42368 16.59487,0 1.550323,-17.29364 10.176862,-40.35192 4.188996,-52.84579 z"
         id="thigh-L" />
    </g>
    <path
       d="m 56.882975,167.92742 25.863946,34.83601 9.666913,-0.16112 24.480846,-34.70358 z"
       id="pelvis"
       />
    <path
       d="m 57.174415,108.45125 c 4.115879,20.56372 0.364761,39.67443 -0.405595,59.32198 l 60.25453,-0.0242 c -1.25366,-19.55792 -3.35288,-39.05746 0.36646,-58.61538 z"
       id="torso" />
    <g
       id="arm-R"
       transform="matrix(-1,0,0,1,173.76644,-0.09735657)">
      <ellipse
         id="helbow-R"
         cx="38.320686"
         cy="122.54654"
         rx="7.508615"
         ry="7.6842546"
         />
      <ellipse
         id="wrist-R"
         cx="34.410854"
         cy="178.47554"
         rx="5.2216988"
         ry="5.3438435"
         />
      <path
         d="m 42.352027,59.107231 c -16.504935,14.449056 -9.380305,40.202167 -11.106692,60.218599 3.367932,-5.68401 10.76581,-5.70214 14.115162,0.51013 4.188846,-16.64886 9.609777,-33.082746 6.308972,-49.731604 -6.259494,1.949177 -12.402121,-4.345076 -9.317442,-10.997125 z"
         id="arm-R-path" />
      <path
         d="m 30.827325,124.43133 c -5.798987,18.30696 -1.364831,35.8914 -1.634981,53.02378 1.553869,-5.66553 8.776567,-5.77303 10.591219,0 2.711609,-17.0616 7.124422,-35.2927 5.663009,-51.48492 -4.376021,6.04085 -10.816275,5.79697 -14.619247,-1.53886 z"
         id="forearm-R" />
      <path
         d="m 28.996713,179.41981 -8.409849,9.83767 17.824094,4.00539 0.628676,-12.3262 c -2.670882,4.36978 -8.07097,3.37317 -10.042921,-1.51686 z"
         id="palm-R" />
      <path
         d="m 20.523277,189.49163 2.953839,13.62863 8.81359,1.8272 6.043858,-11.43215 z"
         id="fingers-R" />
    </g>
    <ellipse
       id="shoulder-R"
       cx="124.8527"
       cy="62.838337"
       rx="7.508615"
       ry="7.6842546"
       />
    <g
       id="arm-L">
      <ellipse
         id="elbow-L"
         cx="38.320686"
         cy="122.54654"
         rx="7.508615"
         ry="7.6842546"
      />
      <ellipse
         id="wrist-L"
         cx="34.410854"
         cy="178.47554"
         rx="5.2216988"
         ry="5.3438435"
         />
      <path
         d="m 42.352027,59.107231 c -16.504935,14.449056 -9.380305,40.202167 -11.106692,60.218599 3.367932,-5.68401 10.76581,-5.70214 14.115162,0.51013 4.188846,-16.64886 9.609777,-33.082746 6.308972,-49.731604 -6.259494,1.949177 -12.402121,-4.345076 -9.317442,-10.997125 z"
         id="arm-L-path" />
      <path
         d="m 30.827325,124.43133 c -5.798987,18.30696 -1.364831,35.8914 -1.634981,53.02378 1.553869,-5.66553 8.776567,-5.77303 10.591219,0 2.711609,-17.0616 7.124422,-35.2927 5.663009,-51.48492 -4.376021,6.04085 -10.816275,5.79697 -14.619247,-1.53886 z"
         id="forearm-L" />
      <path
         d="m 28.996713,179.41981 -8.409849,9.83767 17.824094,4.00539 0.628676,-12.3262 c -2.670882,4.36978 -8.07097,3.37317 -10.042921,-1.51686 z"
         id="palm-L" />
      <path
         d="m 20.523277,189.49163 2.953839,13.62863 8.81359,1.8272 6.043858,-11.43215 z"
         id="fingers-L" />
    </g>
    <ellipse
       id="shoulder-L"
       cx="48.964233"
       cy="62.838337"
       rx="7.508615"
       ry="7.6842546"
       />
    <path
       d="m 50.391074,55.383727 c 26.812051,-8.95921 44.943539,-9.255905 74.003156,-0.103659 -9.69367,1.622854 -8.62337,13.188965 -2.17583,15.070456 0.33068,0.0965 -2.02122,7.397408 -0.68342,16.735007 0.60352,4.212468 -1.75735,16.915979 -3.71624,22.256919 L 57.239443,108.72649 C 55.215007,101.52174 51.412478,93.985317 52.646758,86.449145 53.502564,81.22383 51.511441,70.474711 52.066668,70.187365 57.892629,67.172269 58.675032,57.529263 50.391074,55.383727 z"
       id="brest"
    />
    <path
       d="m 96.198364,36.164287 4.471906,13.741209 C 90.922363,48.348247 84.270069,48.07427 73.813773,49.718769 l 4.029408,-13.387368 c 5.917118,3.439377 11.591428,5.706548 18.355183,-0.16709 z"
       id="neck" />
    <g
       id="head"
       transform="translate(0.48495151)"
       >
      <ellipse
         id="head-part"
         ry="23.031557"
         rx="15.830748"
         cy="16.968723"
         cx="86.539833" />
      <path
         d="m 70.410271,16.99755 c 11.278064,2.685242 21.911677,2.792676 31.900819,0.322231"
         id="forehead" />
      <path
         d="M 86.682908,-6.3641591 V 39.875914"
         id="head-center" />
      <path
         d="m 87.411202,23.88637 c 2.004698,-0.535674 2.085813,1.273812 2.007542,2.514629 -0.491126,3.614215 -2.097535,6.465968 -3.556929,9.815905 -0.420153,0.475018 -0.832412,0.31615 -1.032923,0.129114 z"
         id="ear-R"
         transform="translate(15.468368,-7.00862)" />
      <path
         d="m 54.811642,24.041418 c -2.004698,-0.535674 -2.085813,1.273812 -2.007542,2.514629 0.491126,3.614215 2.097535,6.465968 3.556929,9.815905 0.420153,0.475018 -0.832412,0.31615 -1.032923,0.129114 z"
         id="ear-L"
         transform="translate(15.468368,-7.00862)" />
      <g
         id="eyes"
         transform="translate(-0.52656237)"
         >
        <path
           d="m 75.101357,17.735131 c 0.455012,-1.504624 0.409604,-3.562842 3.617965,-3.617965 3.295628,0.210564 4.048716,2.328033 4.740783,4.491267 z"
           id="eye-R" />
        <path
           d="m 99.031434,17.591773 c -0.455012,-1.504624 -0.409604,-3.562842 -3.617965,-3.617965 -3.295628,0.210564 -4.048716,2.328033 -4.740783,4.491267 z"
           id="eye-L" />
      </g>
    </g>
  </g>
</svg>
