<?xml version="1.0" encoding="UTF-8" standalone="no"?>
<!-- Created with Inkscape (http://www.inkscape.org/) -->

<svg
   width="512"
   height="512"
   viewBox="0 0 512 512"
   version="1.1"
   id="svg1"
   inkscape:version="1.4.2 (ebf0e940d0, 2025-05-08)"
   sodipodi:docname="logo.svg"
   xmlns:inkscape="http://www.inkscape.org/namespaces/inkscape"
   xmlns:sodipodi="http://sodipodi.sourceforge.net/DTD/sodipodi-0.dtd"
   xmlns="http://www.w3.org/2000/svg"
   xmlns:svg="http://www.w3.org/2000/svg">
  <sodipodi:namedview
     id="namedview1"
     pagecolor="#ffffff"
     bordercolor="#000000"
     borderopacity="0.25"
     inkscape:showpageshadow="2"
     inkscape:pageopacity="0.0"
     inkscape:pagecheckerboard="0"
     inkscape:deskcolor="#d1d1d1"
     inkscape:document-units="px"
     inkscape:zoom="0.92901188"
     inkscape:cx="371.36231"
     inkscape:cy="387.5085"
     inkscape:window-width="1920"
     inkscape:window-height="1011"
     inkscape:window-x="0"
     inkscape:window-y="0"
     inkscape:window-maximized="1"
     inkscape:current-layer="layer2" />
  <defs
     id="defs1" />
  <g
     inkscape:groupmode="layer"
     id="layer2"
     inkscape:label="backgroud">
    <rect
       style="fill:#a7c7d4;fill-opacity:1;stroke:#ffb77c;stroke-width:0.921129;stroke-opacity:1"
       id="rect3"
       width="518.90967"
       height="518.90967"
       x="-4.3450861"
       y="-2.1922605"
       inkscape:label="filler" />
  </g>
  <g
     inkscape:label="headneck"
     inkscape:groupmode="layer"
     id="layer1"
     transform="matrix(2.3069968,0,0,2.3069968,-203.33707,-307.22486)">
    <path
       d="m 233.56514,297.73743 16.90169,51.93528 c -36.84248,-5.88567 -61.98501,-6.92117 -101.50487,-0.70574 l 15.22926,-50.59793 c 22.36391,12.99922 43.81012,21.56806 69.37392,-0.63152 z"
       id="neck"
       style="fill:#ffffff;stroke:#ffb77c;stroke-width:3.77953;stroke-opacity:1;fill-opacity:1" />
    <g
       id="head"
       transform="matrix(3.7795276,0,0,3.7795276,-128.18634,161.05351)"
       style="fill:none;stroke:#ffb77c;stroke-opacity:1">
      <ellipse
         id="head-part"
         ry="23.031557"
         rx="15.830748"
         cy="16.968723"
         cx="86.539833"
         style="opacity:1;fill:#ffffff;stroke:#ffb77c;stroke-opacity:1;fill-opacity:1"
         inkscape:label="head" />
      <path
         d="m 70.892411,20.248353 c 11.278064,-2.685242 21.085152,-2.68936 31.384239,-0.01228"
         id="forehead"
         style="fill:#ffffff;stroke:#ffb77c;stroke-opacity:1;fill-opacity:1"
          />
      <path
         d="M 86.777946,-6.3641591 V 39.875914"
         id="head-center"
         style="fill:#ffffff;stroke:#ffb77c;stroke-opacity:1;fill-opacity:1" />
      <path
         d="m 70.118043,15.628999 c -2.00469,-0.535674 -2.659598,1.40132 -2.581328,2.642137 0.49113,3.614215 2.09754,6.465968 3.55693,9.815905 0.42015,0.475018 0.83241,0.31615 1.03292,0.129114 z"
         id="ear-R-5"
         style="fill:#ffffff;stroke:#ffb77c;stroke-opacity:1;fill-opacity:1"
         sodipodi:nodetypes="ccccc" />
      <path
         d="m 103.07419,15.628999 c 2.00469,-0.535674 2.6596,1.401319 2.58133,2.642136 -0.49113,3.614215 -2.09754,6.465968 -3.55693,9.815905 -0.42015,0.475018 -0.83241,0.31615 -1.03292,0.129114 z"
         id="ear-R-5-2"
         style="fill:#ffffff;stroke:#ffb77c;stroke-opacity:1;fill-opacity:1"
         sodipodi:nodetypes="ccccc" />
      <g
         id="eyes"
         transform="translate(-0.38734993,-0.52916664)"
         fill="#ffb77c"
         style="fill:none;stroke:#ffb77c;stroke-opacity:1">
        <path
           d="m 75.77842,19.224606 c -0.03915,-2.548484 1.584432,-4.7389 3.345496,-4.742985 2.317819,-0.102089 3.563009,1.556415 4.2593,4.120143 z"
           id="eye-L-9"
           style="fill:#ffb77c;fill-opacity:1;stroke:#ffb77c;stroke-opacity:1"
           sodipodi:nodetypes="cccc" />
        <path
           d="m 98.552171,19.224606 c 0.03915,-2.548484 -1.584432,-4.7389 -3.345496,-4.742985 -2.317819,-0.102089 -3.563009,1.556415 -4.2593,4.120143 z"
           id="eye-L-9-1"
           style="fill:#ffb77c;fill-opacity:1;stroke:#ffb77c;stroke-opacity:1"
           sodipodi:nodetypes="cccc" />
      </g>
    </g>
  </g>
</svg>
